<svg xmlns="http://www.w3.org/2000/svg" viewBox="0 0 1200 630" role="img" aria-labelledby="title desc">
  <title id="title">AiMediaWebsite social card</title>
  <desc id="desc">Official-source-first briefs for operations and engineering teams.</desc>
  <defs>
    <linearGradient id="bg" x1="0%" y1="0%" x2="100%" y2="100%">
      <stop offset="0%" stop-color="#071c2c" />
      <stop offset="55%" stop-color="#0b3554" />
      <stop offset="100%" stop-color="#12639d" />
    </linearGradient>
  </defs>
  <rect width="1200" height="630" fill="url(#bg)" />
  <circle cx="1010" cy="128" r="184" fill="#f0b35b" fill-opacity="0.11" />
  <circle cx="1140" cy="514" r="212" fill="#d4ecff" fill-opacity="0.07" />
  <rect x="72" y="72" width="1056" height="486" rx="32" fill="#09263d" fill-opacity="0.46" stroke="#ffffff" stroke-opacity="0.1" />

  <rect x="108" y="120" width="120" height="120" rx="28" fill="#0f466f" />
  <path
    d="M136 212L168 132L186 176L204 132L236 212"
    fill="none"
    stroke="#f4eee2"
    stroke-linecap="round"
    stroke-linejoin="round"
    stroke-width="16"
  />
  <path d="M154 176H182M186 176H218" fill="none" stroke="#f0b35b" stroke-linecap="round" stroke-width="12" />

  <text x="108" y="300" fill="#f0b35b" font-family="Georgia, 'Times New Roman', serif" font-size="30" letter-spacing="5">OFFICIAL-SOURCE-FIRST</text>
  <text x="108" y="384" fill="#ffffff" font-family="Georgia, 'Times New Roman', serif" font-size="72" font-weight="700">
    AiMediaWebsite
  </text>
  <text x="108" y="452" fill="#d5e8f6" font-family="'Trebuchet MS', Arial, sans-serif" font-size="36">
    Official updates, practical decisions.
  </text>
  <text x="108" y="504" fill="#d5e8f6" font-family="'Trebuchet MS', Arial, sans-serif" font-size="28">
    Briefs, weekly summaries, and share-ready outputs for Ops + Eng teams.
  </text>

  <g transform="translate(764 334)">
    <rect width="280" height="62" rx="16" fill="#f0b35b" fill-opacity="0.18" />
    <text x="28" y="39" fill="#ffffff" font-family="'Trebuchet MS', Arial, sans-serif" font-size="28">Leader 5-line</text>
  </g>
  <g transform="translate(812 414)">
    <rect width="232" height="62" rx="16" fill="#ffffff" fill-opacity="0.1" />
    <text x="28" y="39" fill="#f4eee2" font-family="'Trebuchet MS', Arial, sans-serif" font-size="28">Runbook memo</text>
  </g>
  <g transform="translate(696 494)">
    <rect width="348" height="62" rx="16" fill="#ffffff" fill-opacity="0.08" />
    <text x="28" y="39" fill="#d5e8f6" font-family="'Trebuchet MS', Arial, sans-serif" font-size="28">Checklist + source links</text>
  </g>
</svg>
